<?xml version="1.0" standalone="no"?>
<!DOCTYPE svg PUBLIC "-//W3C//DTD SVG 20010904//EN"
 "http://www.w3.org/TR/2001/REC-SVG-20010904/DTD/svg10.dtd">
<svg version="1.0" xmlns="http://www.w3.org/2000/svg"
 width="567.000000pt" height="567.000000pt" viewBox="0 0 567.000000 567.000000"
 preserveAspectRatio="xMidYMid meet">
<metadata>
Created by potrace 1.11, written by Peter Selinger 2001-2013
</metadata>
<g transform="translate(0.000000,567.000000) scale(0.100000,-0.100000)"
fill="#000000" stroke="none">
<path d="M0 4868 l0 -803 612 -612 613 -613 -613 -613 -612 -612 0 -808 0
-807 2835 0 2835 0 0 807 0 808 -612 612 -613 613 613 613 612 612 0 803 0
802 -2835 0 -2835 0 0 -802z m3700 -850 l-1 -303 -34 37 -35 38 0 225 0 225
-805 0 -805 0 0 -228 0 -228 -28 -27 c-15 -15 -31 -27 -35 -27 -9 0 -9 574 0
583 3 4 397 7 875 7 l868 0 0 -302z m-1235 -38 l80 -80 -195 -195 -195 -195
193 -193 c105 -106 192 -197 192 -202 0 -6 -35 -45 -78 -88 l-77 -77 -280 280
-280 280 275 275 c151 151 277 275 280 275 3 0 41 -36 85 -80z m1105 -195
l275 -275 -280 -280 -280 -280 -82 82 -83 83 197 197 198 198 -195 195 -195
195 80 80 c44 44 82 80 85 80 3 0 129 -124 280 -275z m-454 -75 l33 -185 -90
-573 c-49 -315 -89 -575 -89 -578 0 -2 -63 -4 -140 -4 -77 0 -140 2 -140 5 0
2 -40 261 -90 575 l-89 571 30 177 c16 97 32 183 34 190 4 10 60 12 257 10
l252 -3 32 -185z m-1096 -1382 l0 -898 805 0 805 0 0 898 0 898 35 34 35 34 0
-967 0 -967 -875 0 -875 0 0 967 0 967 35 -34 35 -34 0 -898z m530 -61 l0 -72
60 0 c101 0 129 -48 130 -217 l0 -88 -40 0 -40 0 0 110 c0 105 -1 110 -25 126
-16 11 -34 14 -55 9 l-30 -7 0 -119 0 -119 -35 0 -35 0 0 219 0 220 23 4 c48
9 47 10 47 -66z m-171 -95 c37 -27 61 -80 61 -135 0 -105 -54 -162 -147 -153
l-53 5 0 -55 0 -54 -35 0 -35 0 0 200 0 200 28 6 c15 3 32 8 37 10 24 9 121
-6 144 -24z m601 6 c77 -40 102 -134 60 -226 -24 -53 -72 -77 -137 -68 l-43 6
0 -55 0 -55 -40 0 -40 0 0 200 0 200 28 6 c15 3 32 7 37 9 32 11 96 2 135 -17z
m272 6 c5 -3 8 -11 8 -18 0 -9 -15 -11 -55 -8 -62 5 -85 -7 -85 -45 0 -20 11
-29 65 -55 36 -16 72 -40 80 -51 37 -53 0 -114 -73 -124 -59 -8 -112 4 -112
25 0 15 9 17 68 14 53 -3 71 -1 81 12 25 30 5 62 -51 86 -29 12 -63 31 -75 43
-43 39 -21 108 40 126 29 9 91 6 109 -5z m250 0 c5 -3 8 -12 8 -20 0 -11 -9
-13 -40 -8 -86 14 -130 -28 -130 -124 0 -46 4 -58 30 -83 27 -28 35 -30 87
-28 47 2 59 0 61 -13 7 -35 -114 -36 -165 -3 -68 45 -71 200 -5 258 11 10 33
22 48 27 27 8 89 4 106 -6z m-772 -468 c0 -8 -7 -13 -16 -12 -9 0 -19 -5 -21
-11 -3 -8 4 -13 16 -13 12 0 21 -6 21 -15 0 -8 -9 -15 -20 -15 -17 0 -20 -7
-20 -45 0 -33 -4 -45 -15 -45 -12 0 -15 15 -15 73 0 43 5 78 12 85 17 17 58
15 58 -2z m-477 -49 c3 -9 -8 -19 -31 -27 l-37 -13 37 -17 c24 -11 34 -20 29
-28 -11 -18 -101 21 -101 43 0 9 18 24 43 35 52 23 54 23 60 7z m147 -2 c0
-11 -7 -14 -25 -9 -20 5 -27 1 -36 -20 -15 -32 2 -56 37 -56 27 0 32 -15 9
-24 -24 -9 -65 12 -75 39 -18 46 8 85 56 85 24 0 34 -5 34 -15z m105 -1 c10
-11 15 -29 13 -53 -2 -28 -9 -39 -31 -49 -24 -12 -31 -11 -52 2 -33 22 -41 60
-21 91 19 29 66 34 91 9z m125 -10 c16 -40 13 -94 -5 -94 -11 0 -15 11 -15 39
0 39 -20 68 -40 56 -5 -3 -10 -26 -10 -51 0 -32 -4 -44 -15 -44 -12 0 -15 13
-15 60 l0 60 45 0 c40 0 47 -3 55 -26z m200 7 c20 -39 13 -51 -31 -51 -28 0
-39 -4 -36 -12 2 -7 18 -13 35 -13 33 0 44 -18 16 -29 -60 -23 -111 57 -67
106 22 24 69 24 83 -1z m100 10 c0 -5 -10 -11 -22 -13 -20 -3 -23 -10 -26 -50
-2 -34 -7 -48 -18 -48 -10 0 -14 13 -14 53 0 30 3 57 7 60 10 11 73 8 73 -2z
m87 1 c6 -4 15 -20 18 -35 7 -26 6 -27 -35 -27 -50 0 -51 -23 -2 -28 37 -4 42
-17 10 -25 -39 -11 -73 14 -76 54 -5 54 42 88 85 61z m133 -18 c16 -40 13 -94
-5 -94 -11 0 -15 11 -15 39 0 39 -20 68 -40 56 -5 -3 -10 -26 -10 -51 0 -32
-4 -44 -15 -44 -12 0 -15 13 -15 60 l0 60 45 0 c40 0 47 -3 55 -26z m110 12
c0 -9 -7 -12 -18 -9 -24 6 -44 -19 -40 -49 2 -18 10 -24 36 -26 34 -3 42 -16
16 -26 -60 -23 -111 57 -67 106 19 22 73 25 73 4z m97 6 c6 -4 15 -20 18 -35
7 -26 6 -27 -35 -27 -50 0 -51 -23 -2 -28 37 -4 42 -17 10 -25 -39 -11 -73 14
-76 54 -5 54 42 88 85 61z m150 -18 c56 -24 38 -49 -55 -78 -39 -13 -25 20 16
36 l37 14 -37 13 c-21 7 -38 19 -38 27 0 16 13 14 77 -12z"/>
<path d="M2132 3757 c-133 -133 -242 -247 -242 -252 0 -6 110 -120 245 -255
l245 -245 50 50 c27 27 50 54 50 60 0 5 -87 96 -192 202 l-193 193 195 195
195 195 -50 50 c-27 27 -52 50 -55 50 -3 0 -114 -109 -248 -243z"/>
<path d="M3235 3950 l-50 -50 195 -195 195 -195 -198 -198 -197 -197 53 -53
52 -52 250 250 250 250 -245 245 c-135 135 -247 245 -250 245 -3 0 -28 -23
-55 -50z"/>
<path d="M2610 3853 c0 -5 -13 -80 -29 -169 l-28 -161 86 -549 86 -549 105 0
105 0 86 549 86 549 -18 96 c-9 53 -22 129 -29 169 l-12 72 -219 0 c-120 0
-219 -3 -219 -7z m320 -873 c0 -19 -7 -20 -100 -20 -93 0 -100 1 -100 20 0 19
7 20 100 20 93 0 100 -1 100 -20z m-25 -155 c0 -18 -8 -20 -77 -23 -71 -3 -78
-1 -78 16 0 30 10 33 85 30 62 -3 70 -5 70 -23z m-25 -155 c0 -18 -7 -20 -55
-20 -48 0 -55 2 -55 20 0 18 7 20 55 20 48 0 55 -2 55 -20z m-20 -140 c0 -16
-7 -20 -30 -20 -23 0 -30 4 -30 20 0 16 7 20 30 20 23 0 30 -4 30 -20z"/>
<path d="M2248 2134 c-5 -4 -8 -47 -8 -95 0 -87 0 -89 26 -95 37 -9 76 6 91
36 20 40 16 95 -9 125 -23 26 -86 44 -100 29z"/>
<path d="M2868 2134 c-5 -4 -8 -47 -8 -95 0 -86 1 -89 25 -95 14 -3 37 -3 51
0 52 13 69 130 25 171 -21 18 -82 31 -93 19z"/>
<path d="M2442 1648 c-26 -26 0 -77 33 -64 20 7 20 62 -1 70 -20 8 -18 8 -32
-6z"/>
<path d="M2765 1650 c-4 -6 5 -10 20 -10 15 0 24 4 20 10 -3 6 -12 10 -20 10
-8 0 -17 -4 -20 -10z"/>
<path d="M2965 1650 c-4 -6 5 -10 20 -10 15 0 24 4 20 10 -3 6 -12 10 -20 10
-8 0 -17 -4 -20 -10z"/>
<path d="M3305 1650 c-4 -6 5 -10 20 -10 15 0 24 4 20 10 -3 6 -12 10 -20 10
-8 0 -17 -4 -20 -10z"/>
<path d="M0 3585 l0 -320 210 -210 c116 -115 210 -214 210 -220 0 -6 -94 -105
-210 -220 l-210 -210 0 -315 0 -315 532 533 533 532 -533 532 -532 533 0 -320z"/>
<path d="M5135 3370 l-530 -530 533 -533 532 -532 0 315 0 315 -215 215 -215
215 215 215 215 215 -2 318 -3 317 -530 -530z"/>
<path d="M0 2840 l0 -265 132 133 133 132 -133 132 -132 133 0 -265z"/>
<path d="M5535 2970 l-130 -130 133 -133 132 -132 0 263 c0 144 -1 262 -3 262
-1 0 -61 -59 -132 -130z"/>
</g>
</svg>
