<?xml version="1.0" standalone="no"?>
<!DOCTYPE svg PUBLIC "-//W3C//DTD SVG 20010904//EN"
 "http://www.w3.org/TR/2001/REC-SVG-20010904/DTD/svg10.dtd">
<svg version="1.0" xmlns="http://www.w3.org/2000/svg"
 width="567.000000pt" height="567.000000pt" viewBox="0 0 567.000000 567.000000"
 preserveAspectRatio="xMidYMid meet">
<metadata>
Created by potrace 1.11, written by Peter Selinger 2001-2013
</metadata>
<g transform="translate(0.000000,567.000000) scale(0.100000,-0.100000)"
fill="#000000" stroke="none">
<path d="M1050 4925 l-674 -674 677 -678 677 -678 199 199 199 199 -480 478
-479 479 475 476 c262 261 476 479 476 483 0 9 -374 384 -387 388 -5 2 -312
-301 -683 -672z m815 415 c71 -71 127 -132 125 -134 -3 -3 -218 -219 -479
-480 l-474 -475 474 -475 c260 -261 475 -479 476 -483 2 -5 -55 -66 -126 -137
l-130 -130 -612 612 -612 612 609 610 c335 335 611 610 614 610 3 0 64 -58
135 -130z"/>
<path d="M3738 5404 l-195 -196 479 -479 478 -479 -475 -475 c-261 -261 -475
-478 -475 -482 0 -5 88 -96 195 -203 l195 -195 678 678 677 677 -675 675
c-371 371 -678 675 -681 675 -3 0 -94 -88 -201 -196z m816 -544 l608 -609
-611 -613 -612 -612 -130 130 c-71 71 -128 133 -126 137 1 5 216 222 476 483
l475 475 -475 475 c-261 261 -476 477 -479 480 -4 5 250 264 260 264 3 0 279
-275 614 -610z"/>
<path d="M2209 5201 c0 -3 -2 -13 -4 -21 -2 -8 -6 -33 -10 -55 -3 -22 -12 -71
-20 -110 -7 -38 -16 -88 -20 -110 -10 -67 -15 -98 -25 -150 -5 -27 -12 -67
-16 -89 -3 -21 -8 -48 -10 -60 -2 -11 -6 -37 -9 -56 -3 -19 -7 -46 -10 -60 -3
-14 -8 -38 -10 -55 -3 -16 -10 -56 -16 -88 -5 -32 -7 -75 -4 -95 3 -20 8 -53
11 -72 10 -68 15 -96 24 -150 5 -30 12 -72 15 -92 10 -77 16 -114 20 -138 7
-39 36 -222 40 -250 6 -42 16 -102 25 -160 5 -30 12 -73 15 -95 3 -22 10 -65
15 -95 5 -30 12 -73 15 -95 3 -23 7 -52 10 -65 3 -13 7 -42 10 -65 6 -42 12
-80 21 -130 3 -16 7 -46 9 -65 2 -19 8 -60 14 -90 6 -30 12 -72 16 -92 13 -89
19 -134 45 -293 11 -71 23 -148 26 -170 4 -22 8 -47 9 -55 3 -15 13 -84 20
-130 7 -47 25 -155 29 -175 2 -11 7 -42 10 -68 4 -27 9 -58 11 -69 3 -11 7
-41 10 -66 10 -89 -25 -81 351 -81 247 1 334 4 335 12 2 20 7 50 14 92 3 22
13 83 21 135 8 52 17 109 21 125 3 17 6 41 8 55 2 14 13 86 25 160 12 74 23
146 25 160 2 14 4 27 5 30 1 3 2 8 2 11 -1 3 8 59 19 125 11 65 21 133 24 151
2 18 9 58 14 90 6 32 13 78 16 103 3 25 10 70 15 100 5 30 12 73 15 95 10 64
15 97 25 155 5 30 12 75 15 100 3 25 8 53 11 63 3 10 7 32 9 50 2 18 8 61 13
97 6 36 13 83 16 105 4 22 8 51 11 65 3 14 7 41 10 60 5 40 23 153 29 190 3
14 7 43 11 65 9 67 46 298 52 330 10 53 7 106 -12 198 -8 44 -14 73 -45 257
-16 96 -33 189 -36 205 -3 17 -7 39 -9 50 -1 11 -10 63 -20 115 -9 52 -19 108
-21 124 -2 16 -8 33 -15 36 -13 9 -1219 10 -1220 1z m1152 -96 c0 -5 2 -18 4
-28 2 -10 9 -51 15 -90 7 -40 14 -81 16 -92 4 -21 8 -42 25 -140 6 -33 12 -71
15 -85 24 -139 34 -201 39 -235 3 -22 8 -46 11 -53 19 -57 12 -142 -31 -402
-2 -14 -6 -38 -9 -55 -3 -16 -8 -48 -11 -70 -4 -22 -8 -51 -10 -65 -2 -21 -10
-75 -20 -130 -2 -14 -11 -69 -21 -132 -2 -16 -7 -43 -10 -60 -3 -18 -7 -44 -9
-58 -5 -41 -16 -114 -20 -130 -2 -8 -6 -37 -10 -65 -3 -27 -15 -102 -25 -165
-23 -138 -30 -185 -35 -225 -3 -16 -7 -41 -9 -55 -3 -14 -8 -43 -11 -65 -3
-23 -7 -52 -10 -65 -3 -13 -7 -42 -10 -65 -3 -22 -8 -51 -10 -65 -5 -30 -9
-51 -30 -190 -9 -58 -18 -116 -21 -130 -2 -14 -7 -45 -10 -70 -3 -25 -7 -52
-9 -60 -5 -17 -25 -147 -31 -203 -2 -21 -6 -42 -8 -46 -3 -4 -7 -30 -11 -59
-8 -71 -24 -154 -31 -161 -3 -3 -118 -6 -255 -6 l-248 -1 -6 26 c-10 49 -15
75 -20 121 -3 25 -8 56 -10 70 -3 13 -8 40 -11 59 -3 19 -12 73 -19 120 -8 47
-17 101 -19 120 -4 32 -41 270 -51 330 -2 14 -6 39 -9 55 -3 17 -8 53 -12 80
-3 28 -7 52 -9 55 -2 3 -6 29 -10 59 -4 30 -9 63 -11 75 -2 12 -7 41 -10 66
-3 25 -7 56 -10 70 -9 47 -33 196 -40 250 -4 36 -19 121 -29 175 -3 17 -8 48
-10 70 -6 46 -7 56 -29 190 -20 116 -23 134 -31 195 -3 25 -8 52 -10 60 -2 8
-6 35 -9 60 -3 25 -8 56 -11 70 -3 14 -7 43 -10 65 -3 22 -7 51 -10 65 -2 14
-7 39 -10 55 -3 17 -8 53 -11 80 -4 28 -8 52 -9 55 -2 3 1 28 6 55 14 73 64
362 75 430 3 17 7 37 9 45 2 8 6 33 10 55 6 41 11 73 19 112 9 42 18 113 16
119 -1 4 3 10 8 13 18 11 1072 7 1073 -4z"/>
<path d="M2579 3008 c-7 -16 -3 -88 5 -91 6 -1 117 -3 246 -2 l235 0 0 45 0
45 -242 3 c-134 1 -244 1 -244 0z"/>
<path d="M2663 2632 c-13 -2 -23 -6 -24 -10 0 -4 -2 -24 -3 -44 -1 -32 2 -38
19 -39 25 -1 256 -1 311 0 l42 1 -1 45 c0 43 -2 45 -31 45 -17 1 -89 2 -161 3
-71 1 -140 1 -152 -1z"/>
<path d="M2699 2250 c-1 -3 -2 -24 -4 -47 l-2 -43 128 0 129 0 0 45 c0 29 -4
45 -12 46 -50 4 -238 3 -239 -1z"/>
<path d="M2755 1911 c-3 -2 -5 -24 -5 -48 l0 -43 70 0 c69 0 70 0 71 28 2 32
-1 55 -7 61 -6 6 -123 8 -129 2z"/>
<path d="M2136 1413 c-1 -1 -20 -5 -42 -8 -21 -3 -49 -8 -61 -10 l-23 -5 0
-533 0 -533 83 1 82 0 3 292 2 291 30 11 c39 13 148 8 178 -8 13 -7 33 -33 44
-59 18 -41 21 -69 23 -281 1 -130 3 -239 3 -242 2 -8 144 -5 157 3 12 7 13
419 1 508 -20 152 -117 232 -281 233 -44 1 -97 -3 -117 -7 l-38 -8 0 180 c0
176 -1 181 -20 179 -12 -1 -22 -2 -24 -4z"/>
<path d="M1420 1070 c-30 -4 -80 -12 -110 -19 l-56 -12 2 -477 c0 -262 2 -482
3 -488 1 -13 152 -15 161 -2 3 4 5 66 5 138 -1 84 3 130 10 130 5 0 30 -6 55
-14 67 -20 164 -18 227 6 29 12 53 25 53 29 0 5 4 9 10 9 14 0 60 49 81 87 48
85 68 241 44 348 -26 122 -116 218 -240 257 -38 12 -174 17 -245 8z m180 -150
c106 -29 145 -113 139 -300 0 -9 -13 -40 -27 -70 -40 -83 -114 -110 -219 -81
-71 20 -67 9 -68 232 0 142 3 206 11 214 16 15 113 19 164 5z"/>
<path d="M2900 1068 c-30 -4 -64 -10 -75 -12 -11 -3 -28 -5 -37 -5 -43 -2 -44
-3 -42 -502 1 -261 2 -476 3 -479 2 -8 144 -6 156 2 7 4 11 59 10 142 0 75 1
136 3 136 2 0 17 -8 35 -17 51 -27 208 -24 267 5 87 42 154 132 178 237 6 30
6 207 -1 233 -13 50 -56 130 -85 160 -29 30 -132 97 -132 87 0 -2 -12 0 -27 6
-35 14 -181 18 -253 7z m229 -162 c48 -26 68 -52 87 -116 12 -39 15 -76 11
-132 -6 -93 -35 -152 -87 -180 -47 -24 -132 -24 -185 2 l-41 20 1 205 c0 162
3 208 14 214 25 16 163 6 200 -13z"/>
<path d="M3598 1054 c-66 -20 -125 -82 -134 -141 -9 -61 1 -109 30 -147 25
-33 115 -85 217 -125 77 -30 119 -67 126 -111 2 -19 7 -37 9 -39 10 -10 -34
-63 -66 -78 -61 -30 -201 -25 -291 12 -13 5 -20 -2 -29 -29 -14 -45 -9 -53 43
-67 67 -18 79 -20 142 -20 145 0 247 44 276 118 48 126 -8 227 -156 285 -78
31 -150 67 -171 85 -71 62 -46 158 49 184 50 13 151 6 200 -14 20 -9 37 -15
38 -14 0 1 2 9 4 17 1 8 6 26 9 40 6 23 3 27 -31 40 -53 19 -207 22 -265 4z"/>
<path d="M4210 1053 c-145 -49 -221 -180 -222 -378 0 -162 73 -287 197 -339
79 -33 197 -35 292 -3 41 13 49 30 34 69 l-10 25 -51 -17 c-61 -21 -168 -19
-222 4 -96 41 -142 135 -141 283 2 198 96 296 274 288 37 -2 76 -8 88 -14 11
-6 24 -11 29 -11 9 0 32 51 32 71 0 31 -224 48 -300 22z"/>
<path d="M4219 273 c-1 -5 -2 -50 -3 -100 -2 -102 -3 -101 79 -94 20 1 42 50
37 83 -4 32 -45 62 -72 53 -17 -6 -20 -2 -20 29 0 20 -4 36 -10 36 -5 0 -11
-3 -11 -7z m82 -97 c1 -6 3 -21 4 -34 3 -25 -29 -54 -51 -45 -17 6 -19 74 -3
90 13 13 48 5 50 -11z"/>
<path d="M3577 194 c-23 -23 -29 -67 -11 -95 10 -16 55 -30 75 -24 24 8 13 28
-11 22 -26 -7 -41 6 -46 40 -5 33 15 58 48 58 29 0 26 19 -4 22 -17 1 -35 -7
-51 -23z"/>
<path d="M3740 213 c-25 -9 -40 -35 -40 -69 0 -29 20 -63 38 -65 4 0 15 -2 24
-4 31 -6 62 29 62 69 0 50 -41 84 -84 69z m38 -22 c7 -4 14 -26 15 -47 2 -36
0 -39 -25 -42 -38 -4 -57 39 -33 74 17 26 23 28 43 15z"/>
<path d="M3884 209 c-2 -5 -4 -35 -3 -69 2 -74 24 -78 24 -4 0 54 10 68 37 53
14 -7 18 -22 18 -59 0 -35 4 -50 13 -50 10 0 13 15 12 55 -1 57 10 73 39 52
10 -8 16 -29 18 -60 1 -50 13 -70 22 -40 2 10 4 38 2 62 -2 49 -25 73 -59 64
-24 -5 -23 -5 -80 0 -21 2 -40 0 -43 -4z"/>
<path d="M4403 213 c-16 -6 -18 -129 -3 -138 10 -6 11 0 14 65 1 42 12 61 30
54 8 -3 17 -1 21 5 3 6 3 12 -2 12 -29 5 -50 5 -60 2z"/>
<path d="M3475 100 c-7 -11 2 -30 15 -30 4 0 10 6 13 14 6 16 -19 30 -28 16z"/>
<path d="M4126 102 c-2 -4 0 -14 5 -22 8 -13 10 -13 18 0 10 15 6 30 -9 30 -5
0 -11 -4 -14 -8z"/>
</g>
</svg>
